<svg width="18" height="17" viewBox="0 0 18 17" fill="none" xmlns="http://www.w3.org/2000/svg">
<path fill-rule="evenodd" clip-rule="evenodd" d="M16.9998 2.64682C17.0078 3.18992 16.9398 3.87081 16.8799 4.36738C16.8609 4.53143 16.831 4.69403 16.7904 4.85411C17.5563 6.27225 17.8945 7.97849 17.8945 9.8422C17.8945 12.0504 16.8325 13.8694 15.1781 15.1094C13.539 16.3379 11.3272 17 8.94725 17C6.56728 17 4.35552 16.3379 2.71638 15.1094C1.06204 13.8694 0 12.0504 0 9.8422C0 7.97849 0.337311 6.27225 1.10499 4.85411C1.06441 4.69403 1.03452 4.53143 1.01551 4.36738C0.953777 3.87081 0.885778 3.18992 0.894725 2.64682C0.903672 2.03573 0.984197 1.42463 1.07278 0.818006C1.11393 0.537062 1.17835 0.273118 1.48345 0.106699C1.79482 -0.0632984 2.12229 -0.000667602 2.44528 0.0914891C3.53506 0.400169 4.55683 0.834111 5.51777 1.35305C6.53149 1.04974 7.67495 0.894952 8.94725 0.894952C10.2195 0.894952 11.363 1.04974 12.3758 1.35395C13.3503 0.82123 14.3807 0.398128 15.4483 0.0923837C15.7713 0.000227056 16.0997 -0.0632984 16.4102 0.106699C16.7144 0.273118 16.7797 0.537062 16.8217 0.818006C16.9094 1.42463 16.9908 2.03573 16.9998 2.64682ZM16.105 9.8422C16.105 8.3328 15.7579 6.2633 13.8682 6.2633C13.0165 6.2633 12.2103 6.48698 11.4051 6.71066C10.6007 6.93435 9.79724 7.15803 8.94725 7.15803C8.09726 7.15803 7.2938 6.93435 6.48944 6.71066C5.68419 6.48698 4.87894 6.2633 4.02626 6.2633C2.14197 6.2633 1.78945 8.33906 1.78945 9.8422C1.78945 11.4205 2.52939 12.7331 3.79006 13.6779C5.06414 14.6343 6.88043 15.2106 8.94725 15.2106C11.0141 15.2106 12.8295 14.6335 14.1044 13.6779C15.3651 12.7322 16.105 11.4205 16.105 9.8422ZM7.1578 10.2896C7.1578 11.5243 6.55654 12.5264 5.81571 12.5264C5.07488 12.5264 4.47362 11.5243 4.47362 10.2896C4.47362 9.05484 5.07488 8.05275 5.81571 8.05275C6.55654 8.05275 7.1578 9.05484 7.1578 10.2896ZM12.0788 12.5264C12.8196 12.5264 13.4209 11.5243 13.4209 10.2896C13.4209 9.05484 12.8196 8.05275 12.0788 8.05275C11.338 8.05275 10.7367 9.05484 10.7367 10.2896C10.7367 11.5243 11.338 12.5264 12.0788 12.5264Z" fill="white"/>
</svg>
