<svg width="17" height="17" viewBox="0 0 17 17" fill="none" xmlns="http://www.w3.org/2000/svg">
<path fill-rule="evenodd" clip-rule="evenodd" d="M3.4 0C2.49826 0 1.63346 0.358213 0.995837 0.995837C0.358213 1.63346 0 2.49826 0 3.4V13.6C0 14.5017 0.358213 15.3665 0.995837 16.0042C1.63346 16.6418 2.49826 17 3.4 17H13.6C14.5017 17 15.3665 16.6418 16.0042 16.0042C16.6418 15.3665 17 14.5017 17 13.6V3.4C17 2.49826 16.6418 1.63346 16.0042 0.995837C15.3665 0.358213 14.5017 0 13.6 0H3.4ZM1.7 3.4C1.7 2.94913 1.87911 2.51673 2.19792 2.19792C2.51673 1.87911 2.94913 1.7 3.4 1.7H13.6C14.0509 1.7 14.4833 1.87911 14.8021 2.19792C15.1209 2.51673 15.3 2.94913 15.3 3.4V13.6C15.3 14.0509 15.1209 14.4833 14.8021 14.8021C14.4833 15.1209 14.0509 15.3 13.6 15.3H3.4C2.94913 15.3 2.51673 15.1209 2.19792 14.8021C1.87911 14.4833 1.7 14.0509 1.7 13.6V3.4ZM5.95 7.65C5.95 7.42457 5.86045 7.20837 5.70104 7.04896C5.54164 6.88955 5.32543 6.8 5.1 6.8C4.87457 6.8 4.65837 6.88955 4.49896 7.04896C4.33955 7.20837 4.25 7.42457 4.25 7.65V12.75C4.25 12.9754 4.33955 13.1916 4.49896 13.351C4.65837 13.5104 4.87457 13.6 5.1 13.6C5.32543 13.6 5.54164 13.5104 5.70104 13.351C5.86045 13.1916 5.95 12.9754 5.95 12.75V7.65ZM6.375 4.675C6.375 5.01315 6.24067 5.33745 6.00156 5.57656C5.76245 5.81567 5.43815 5.95 5.1 5.95C4.76185 5.95 4.43755 5.81567 4.19844 5.57656C3.95933 5.33745 3.825 5.01315 3.825 4.675C3.825 4.33685 3.95933 4.01255 4.19844 3.77344C4.43755 3.53433 4.76185 3.4 5.1 3.4C5.43815 3.4 5.76245 3.53433 6.00156 3.77344C6.24067 4.01255 6.375 4.33685 6.375 4.675ZM8.5 6.8C8.789 6.8 9.044 6.9445 9.197 7.1638C9.63509 6.92504 10.1261 6.79996 10.625 6.8C12.461 6.8 13.6 8.4371 13.6 9.83535V12.75C13.6 12.9754 13.5104 13.1916 13.351 13.351C13.1916 13.5104 12.9754 13.6 12.75 13.6C12.5246 13.6 12.3084 13.5104 12.149 13.351C11.9896 13.1916 11.9 12.9754 11.9 12.75V9.8345C11.9 9.1817 11.339 8.49915 10.625 8.49915C10.1796 8.49915 9.68745 8.7414 9.35 9.3177V12.75C9.35 12.9754 9.26045 13.1916 9.10104 13.351C8.94164 13.5104 8.72543 13.6 8.5 13.6C8.27457 13.6 8.05837 13.5104 7.89896 13.351C7.73955 13.1916 7.65 12.9754 7.65 12.75V7.65C7.65 7.42457 7.73955 7.20837 7.89896 7.04896C8.05837 6.88955 8.27457 6.8 8.5 6.8Z" fill="white"/>
</svg>
