<svg viewBox="0 0 258 406" xmlns="http://www.w3.org/2000/svg" fill-rule="evenodd" clip-rule="evenodd" stroke-linecap="round" stroke-linejoin="round" stroke-miterlimit="1.5"><g transform="matrix(.83503 0 0 .95108 -112.539 -42.526)"><path fill="none" d="M134.773 44.713h308.841v426.588H134.773z"/><clipPath id="a"><path d="M134.773 44.713h308.841v426.588H134.773z"/></clipPath><g clip-path="url(#a)"><path d="M222.923 96.157c29.234-7.813 50.776 20.374 50.776 20.374s-125.916 83.847-126.5 65.901c-.577-17.718-5.566-35.3 17.054-60.427 17.823-19.797 38.248-20.391 58.67-25.848z"/><path d="M438.158 154.394c4.38-23.561.486-57.742-10.95-69.278-3.404-3.418-11.677 4.486-35.279 6.409-23.601 1.923-7.544 39.521-7.544 39.521l23.359 16.45 22.14 6.898s4.869 1.516 8.274 0z" fill="#ccc"/><path d="M141.05 197.418c-1.795-1.016 12.694-29.09 23.062-41.5 13.767-16.482 38.066-39.445 59.54-57.387 21.472-17.941 60.372-58.599 113.19-50.486 30.933 4.751 63.987 18.761 85.898 52.656 4.103 6.345 4.506 12.608 7.74 20.417.95 3.755-7.248 3.58-15.346 11.239-8.097 7.658-151.45 29.782-206.576 51.599-55.126 21.819-58.316 16.016-67.508 13.462z" fill="#bfbfbf"/><g transform="matrix(.18845 0 0 .16546 63.153 -14.771)"><clipPath id="b"><path d="M406.659 1273.23c-9.527-6.14 67.359-175.81 122.376-250.82 73.053-99.609 201.997-238.398 315.942-346.834 113.945-108.435 320.363-354.163 600.643-305.131 167.13 29.237 355.02 113.279 471.2 326.338 19.29 35.364 62.83 101.668 28.75 139.083-23.28 25.56-41.53-2.14-84.5 44.146-42.97 46.285-803.66 179.998-1096.182 311.858-292.523 131.87-309.452 96.8-358.229 81.36z"/></clipPath><g clip-path="url(#b)"><use x="4.073" y=".715" width="244.281" height="145.593" transform="matrix(6.33614 0 0 6.33705 380.046 359.519)"/></g></g><path d="M1080.51 1147.38c36.7-54.1 83.04-108.29 130.67-158.886 85.29-90.602 174.73-169.724 220.45-216.437 73.14-74.679 163.93-152.616 257.49-206.762 69.16-40.024 139.79-67.018 205.67-70.074 55.5-2.576 116.45 6.424 175.75 23.364 58.24 16.636 114.92 40.949 163.14 70.216 11.57 6.831 23.94 14.886 36.86 23.67 26.43 17.964 54.92 39.275 81.98 61.817 41.99 34.986 80.63 72.628 103.05 104.466-20.87-33.11-57.55-73.067-98.09-110.143-26.25-24.005-54.03-46.851-80.16-65.791a603.67 603.67 0 00-37.11-24.836c-49.26-29.56-107.04-54.27-166.5-70.697-60.59-16.739-122.88-24.885-179.42-21.558-67.03 3.947-138.59 32.259-208.58 73.745-93.41 55.369-184.07 134.205-256.9 209.837-45.36 47.063-134.17 126.882-218.76 218.127-47.27 50.982-93.23 105.532-129.54 159.942z" fill="url(#_Linear4)" transform="matrix(.18757 0 0 .16468 -40.17 -33.175)"/><path d="M350.806 130.6s-75.55-51.283-86.834-51.226c-11.286.058-52.341 7.628-52.364 9.412-.022 1.601 35.529 15.49 61.27 26.972 28.488 12.708 57.515 23.89 60.683 25.55 9.604-4.793 17.245-10.708 17.245-10.708z" fill="#ccc"/><path d="M360.61 132.92s-57.422-66.993-68.322-69.557c-10.902-2.563-49.832-2.221-53.335-3.076 9.424 4.786 29.601 23.185 50.97 40.233 23.648 18.868 48.277 36.39 50.832 38.724 10.706-2.392 19.855-6.323 19.855-6.323z" fill="#fff"/><path d="M1611.02 2581.42c-40.35 33.45-129.09 203.04-191.3 291.94-21.4 30.58-18.86 53.27-42.41 60.09-29.95 8.69-92.62-2.88-137.31-8-284.01-32.52-521.75-162.33-661.24-358.51-22.089-31.06-57.718-61.21-58.67-98.06-.952-36.86 37.816-86.44 52.957-123.08 51.413-124.4 57.818-214.75 63.528-223.07-7.245 1.26-19.791.53-29.165-.96-75.768-12.06-85.879-101.76-152.097-185.33-51.021-64.39-83.366-185.05-68.602-252.85 24.964-114.65 109.211-108.23 156.507-67.93 37.797 32.21 90.574 38.23 133.184 138.28 45.595 107.06 153.907 557.58 312.763 595.05 158.855 37.46 663.525 58.61 683.005 133.54 19.48 74.94-6.91 53.93-61.15 98.89z" fill="url(#_Linear5)" transform="matrix(.18845 0 0 .16546 63.153 -14.771)"/><path d="M1908.98 1191.62c48.73 174.62 6.99 263.17 8.78 330.76 1.79 67.58 35.12 193.18 26.34 401-8.78 207.82-223.45 730.09-384.44 730.09-254.65 0-760.028-258.84-760.028-513.49 0-254.65-61.468-386.04-61.468-386.04l-2.927-366.21c47.481-47.48 132.052-135.74 240.85-195.86 80.833-44.66 179.063-66.96 264.073-81.55 180.91-31.05 344.6-119.299 443.34-101.38 28.21 5.12 75.78 20.29 113.28 52.08 62.31 52.82 112.2 130.6 112.2 130.6" fill="url(#_Linear6)" transform="matrix(.18845 0 0 .16546 63.153 -14.771)"/><path d="M1908.98 1191.62c48.73 174.62 6.99 263.17 8.78 330.76 1.79 67.58 35.12 193.18 26.34 401-8.78 207.82-223.45 730.09-384.44 730.09-254.65 0-760.028-258.84-760.028-513.49 0-254.65-61.468-386.04-61.468-386.04l-2.927-366.21c47.481-47.48 132.052-135.74 240.85-195.86 80.833-44.66 179.063-66.96 264.073-81.55 180.91-31.05 344.6-119.299 443.34-101.38 28.21 5.12 75.78 20.29 113.28 52.08 62.31 52.82 112.2 130.6 112.2 130.6" fill="url(#_Linear7)" transform="matrix(.18845 0 0 .16546 63.153 -14.771)"/><path d="M1956.47 1957.66c3.17 35.97-4.33 223.44-26.33 262.85-28.77 51.55-65.94 70.74-65.94 101.91s-19 104.49-52.57 142.86c-33.56 38.36-62.82 108.91-103.59 108.91-40.76 0-65.86 79.13-134.2 79.13h-386.92c-117.6 0-367.385-122.71-418.527-212.21-47.956-83.92-70.176-551.5-70.176-551.5 0-54.63-21.936-146.17-79.467-213.12-27.06-31.49-70.957-45.58-107.7-69.77-12.062-7.94-33.396-16.65-52.24-12.4-15.402 3.46-29.128 3.22-40.275 12.54-7.34-11.37 56.91-43.47 72.205-56.63 62.519-53.78 97.903-99.98 157.942-144.19 66.457-48.94 230.011-162.64 240.802-149.46 10.79 13.19-65.956 196.63-65.956 255.37v219.4c0 100.12 264.962 366.87 416.632 366.87 100.12 0 180.7-155.86 242.91-155.86 40.66 0 100.58 25.18 162.93 25.18 62.34 0 67.14-44.36 118.69-44.36s41.96 34.77 49.16 51.55c7.19 16.79 45.55 17.99 45.55 56.35 0 38.37-47.95 57.55-27.57 77.93 20.38 20.38 82.73 29.97 79.13-104.3-1.04-38.81 29.38-60.37 32.4-68.74 4.74-.62 12.32 12.65 13.11 21.69z" fill="url(#_Linear8)" transform="matrix(.18845 0 0 .16546 63.153 -14.771)"/><ellipse cx="1547.11" cy="1879.23" rx="18.583" ry="41.962" transform="matrix(.07054 -.10537 .16246 .08384 -57.687 300.994)"/><ellipse cx="1547.11" cy="1879.23" rx="18.583" ry="41.962" transform="matrix(-.06536 -.09763 -.16246 .08384 791.319 289.03)"/><path d="M384.593 224.38c-8.6-5.223-16.256-6.86-22.843-6.601-9.378.367-16.635 4.607-21.463 8.17-1.196.882-1.447 2.605-.561 3.843.885 1.24 2.573 1.53 3.769.647 4.183-3.085 10.44-6.833 18.563-7.152 5.73-.225 12.368 1.276 19.849 5.818 1.29.784 2.94.36 3.68-.944.742-1.304.297-2.999-.994-3.78z" fill="#fef104"/><path d="M2052.16 1574.8c56.68-51.68 132.24-50.26 188.56-6.77" fill="none" stroke="#a31757" stroke-width="13.33" transform="matrix(.18757 0 0 .16469 -39.983 -30.54)"/><circle cx="1823.52" cy="1576.12" r="177.814" transform="matrix(.16298 0 0 .174 104.31 -28.177)"/><g transform="matrix(.16298 0 0 .16954 113.423 -21.937)"><circle cx="1823.52" cy="1576.12" r="177.814"/><path d="M1823.52 1386.17c-105.35 0-192.2 84.6-192.2 189.95 0 105.36 86.85 189.96 192.2 189.96 105.36 0 192.2-84.6 192.2-189.96 0-105.35-86.84-189.95-192.2-189.95zm0 12.14c98.14 0 177.82 79.68 177.82 177.81 0 98.14-79.68 177.82-177.82 177.82-98.13 0-177.81-79.68-177.81-177.82 0-98.13 79.68-177.81 177.81-177.81z" fill="#fff"/></g><path d="M1166.09 1559.88c-125.01-5.16-249.83-14.23-374.803-20.22-71.52-3.43-162.631-1.18-230.624 12.28-25.051 4.97-95.304 13.96-122.872 26.96-29.824 14.06-19.543 26.86-14.585 31.47 12.988-14.11 50.914-24.99 88.172-3.41.175-11.12 72.185-23.42 98.505-26.34 90.85-10.08 182.491-8.78 273.609-3.76 93.758 5.17 187.458 11.36 281.228 16.32 19.86 1.05 21.09-32.49 1.37-33.3z" fill="url(#_Linear9)" transform="matrix(.18845 0 0 .16546 63.153 -14.771)"/><circle cx="1823.52" cy="1576.12" r="177.814" transform="matrix(.17315 0 0 .18349 -7.38 -42.264)"/><g transform="matrix(.17251 0 0 .174 2.927 -28.177)"><circle cx="1823.52" cy="1576.12" r="177.814"/><path d="M1823.52 1386.48c-105.08 0-191.4 84.56-191.4 189.64 0 105.09 86.32 189.65 191.4 189.65 105.09 0 191.41-84.56 191.41-189.65 0-105.08-86.32-189.64-191.41-189.64zm0 11.83c98.14 0 177.82 79.68 177.82 177.81 0 98.14-79.68 177.82-177.82 177.82-98.13 0-177.81-79.68-177.81-177.82 0-98.13 79.68-177.81 177.81-177.81z" fill="#fff"/></g><path d="M355.467 153.067c2.107 1.13 8.69 5.503 12.976 9.775 5.944 5.918 9.692 11.994 10.806 12.125 1.919.221 17.287-11.356 19.215-15.418 1.93-4.062-6.314-14.354-6.314-14.354l-13.628-2.06-15.508 4.523s-12.577 2.713-7.547 5.409z" fill="gray"/><path d="M358.677 151.239c2.107 1.13 8.69 5.503 12.977 9.775 5.944 5.918 9.692 11.994 10.806 12.125 1.918.221 17.286-11.356 19.214-15.418 1.93-4.062-6.313-14.354-6.313-14.354l-13.629-2.06-15.507 4.523s-12.578 2.713-7.548 5.409z" fill="#fff"/><path d="M140.393 253.083c3.254-3.245 6.062-5.22 9.009-7.375 1.833-1.34 36.898-31.34 79.725-52.743 26.017-13.003 58.742-18.721 78.98-23.332 53.548-12.203 70.016-15.87 70.016-15.87s15.033 6.366 28.824 15.615c10.046 6.737 16.529 17.514 17.377 17.863 9.29 3.82 10.287-32.102 6.164-42.957-4.123-10.854-13.93-17.846-30.908-22.173-12.995-3.313-27.007-6.68-49.694-2.945-52.323 8.613-203.977 57.874-211.335 73.8-1.382 7.306 4.529 28.981 4.92 39.68.463 12.693-4.459 12.652-3.078 20.437z" fill="#fff"/><path d="M441.925 151.347c.458-8.73-3.367-16.942-26.767-22.557-23.398-5.614-31.405 7.86-39.978 10.977-3.824 1.39-4.59 4.086-.56 7.005 5.007 3.627 3.788 1.851 13.816 8.13 5.074 3.18 15.526 8.146 21.958 13.11 6.424 4.957 10.734 8.09 13.864 11.506 2.416 2.634 4.404 6.191 4.404 6.191s.778-.941 1.184-2.048c4.046-11.041 11.621-23.583 12.08-32.314z" fill="#666"/><path d="M2013.96 997.102c2.43-52.769-17.87-105.218-142.04-139.15-124.16-33.933-135.15 55.162-180.64 74.006-45.49 18.844-28.47 39.374 72.56 100.092 101.02 60.72 178.24 130.02 184.3 159.82 50.36-57.05 63.39-142 65.82-194.768z" fill="url(#_Linear10)" transform="matrix(.18845 0 0 .16546 63.153 -14.771)"/><path d="M1439.83 821.761c96.61-14.126 121.44-23.434 194.18-27.82 71.2 10.193 189.88 30.852 255.27 67.96 11.05 11.216-126.92 88.41-196.52 122.503-69.61 34.096-268.14 70.046-376.07 97.706-107.92 27.65-378.118 76.87-513.46 222.48-88.009 9.65-89.819-151.14-29.392-201.96 60.427-50.81 167.74-110.206 190.738-119.733 58.224-24.12 378.644-147.009 475.254-161.136z" fill="url(#_Linear11)" transform="matrix(.18845 0 0 .16546 63.153 -14.771)"/><path d="M1634.26 793.941c-18.43 8.347-40.89 12.617-77.77 36.755-32.9 21.539-150.31 111.106-216.09 159.8-174 128.814-624.946 511.584-838.991 548.364-59.307 10.19-37.895-29.44-51.34-16.65-2.435 2.31-21.962-7.16-8.728-57.24 15.629-59.14 23.653-74.91 23.833-128.23.18-53.32-8.854-106.93 34.286-142.17 43.141-35.23 158.436-106.26 367.445-188 209.005-81.754 446.895-177.574 559.865-179.546 108.44-1.893 152.01-33.083 207.49-33.083z" fill="url(#_Linear12)" transform="matrix(.18845 0 0 .16546 63.153 -14.771)"/><path d="M1634.26 793.941c-34.87 15.795-69.41 32.147-248.53 116.639-195.81 92.37-661.244 614.58-875.289 651.36-59.307 10.19-75.027 36.8-88.472 49.59-2.436 2.31-9.61 10.24-16.115 20.68-7.717-2.88-7.854-43.9 5.379-93.98 15.629-59.14-18.497-114.05-18.317-167.37.18-53.32-9.858-133.02 33.282-168.26 43.14-35.23 204.601-170.39 413.61-252.137 209.012-81.749 479.012-138.528 591.982-140.5 71.1-1.241 112.16-7.743 147.64-12.074 18.64-2.273 56.3-15.617 54.83-3.948z" fill="url(#_Linear13)" transform="matrix(.18845 0 0 .16546 63.153 -14.771)"/><path d="M719.998 2256.53c-11.663 33.14-10.436 71.2 4.91 94.53-20.256-41.13 1.228-59.54-4.91-94.53z" fill="url(#_Linear14)" transform="matrix(.18825 .00753 -.00857 .16529 85.394 -17.854)"/><path d="M719.998 2256.53c-11.663 33.14-10.436 71.2 4.91 94.53-20.256-41.13 1.228-59.54-4.91-94.53z" fill="url(#_Linear15)" transform="matrix(.17679 .0573 -.06526 .15522 226.296 -28.838)"/><path d="M719.998 2256.53c-11.663 33.14-10.436 71.2 4.91 94.53-20.256-41.13 1.228-59.54-4.91-94.53z" fill="url(#_Linear16)" transform="matrix(.17679 .0573 -.06526 .15522 229.105 -23.142)"/><path d="M719.998 2256.53c-11.663 33.14-10.436 71.2 4.91 94.53-20.256-41.13 1.228-59.54-4.91-94.53z" fill="url(#_Linear17)" transform="matrix(.17679 .0573 -.06526 .15522 231.915 -15.665)"/><path d="M292.434 414.174c2.047 5.528 6.587 10.407 11.554 11.932-7.74-3.37-6.63-7.95-11.554-11.932zM299.128 414.976c2.047 5.528 6.587 10.407 11.555 11.932-7.74-3.37-6.631-7.95-11.555-11.932zM305.823 415.78c2.047 5.528 6.587 10.407 11.554 11.931-7.74-3.37-6.63-7.949-11.554-11.931zM312.517 416.583c2.047 5.528 6.587 10.408 11.555 11.932-7.74-3.37-6.631-7.95-11.555-11.932zM319.211 417.385c2.048 5.528 6.588 10.408 11.555 11.932-7.74-3.37-6.63-7.95-11.555-11.932z"/><g><path d="M719.998 2256.53c-11.663 33.14-10.436 71.2 4.91 94.53-20.256-41.13 1.228-59.54-4.91-94.53z" fill="url(#_Linear18)" transform="matrix(-.17548 -.05701 -.0409 .09705 419.207 168.786)"/></g><g><path d="M808.676 1641.51c13.822-61.4 37.293-98.88 66.258-122.98 33.844-28.15 75.063-37.29 116.08-45.33 29.806-5.84 59.386-11.17 86.386-21.31 53.57-20.88 138.86-55.81 227.42-103.51 36.01-19.38 72.37-41.16 107.49-64.42 35.58-23.56 69.55-49.08 100.88-75.14 62.14-52.53 146.89-119.68 230.27-180.5 98.96-72.198 195.42-135.621 244.85-160.625-42.37 19.233-118.51 64.759-202.6 118.469-38.51 24.596-78.51 51.056-117.96 77.166-64.05 42.4-126.16 84.13-174.94 119.58-31.77 23.64-66.53 45.87-101.85 67.6-35.12 21.61-71.1 42.13-106.01 61.71-86.41 48.46-167.21 89.35-218.94 112.38-63.22 29.31-144.543 30.25-199.63 84.5-27.762 27.33-49.049 67.91-57.704 132.41z" fill="url(#_Linear19)" transform="matrix(.15775 0 0 .1385 12.322 15.102)"/></g><g><path d="M142.955 251.45c-1.075-3.046-2.169-6.323-1.886-9.024.452-4.309 1.408-8.346 4.727-10.702 4.714-3.346 10.003-1.404 10.295-.328.951 3.504-5.921 2.732-8.555 10.851-.603 1.86-.602 4.606-.371 7.387-1.475.378-2.902.97-4.21 1.816z" fill="#ffeed0"/></g><g><path d="M146.939 249.693c-.128-4.883.117-10.975 1.64-15.54 1.313-3.937 4.19-7.702 7.166-8.866 2.851-1.117 6.092.218 6.084 1.387-.026 3.805-4.499 5.693-8.384 12.297-1.596 2.711-1.923 6.645-2.21 10.136-1.438.021-2.89.205-4.296.586z" fill="#fbe339"/></g><g><path d="M149.125 249.258c4.767-12.175 7.722-13.969 13.075-15.54 3.536-1.038 7.539.866 7.36 1.301-2.477 1.716-4.917 4.446-7.353 8.242-1.171 1.824-3.906 4.666-5.663 6.575a15.669 15.669 0 00-3.14-.638 18.997 18.997 0 00-4.279.06z" fill="#ef271f"/></g><g><ellipse cx="2938.94" cy="1560.39" rx="37.862" ry="12.621" fill="#fff" transform="matrix(.08722 -.02232 .02542 .07658 70.506 146.673)"/><ellipse cx="2938.94" cy="1560.39" rx="37.862" ry="12.621" fill="#e6e6e6" transform="matrix(.02194 .0774 -.08816 .01927 440.526 -61.484)"/><ellipse cx="2938.94" cy="1560.39" rx="37.862" ry="12.621" fill="#fff" transform="matrix(-.0338 .07404 -.08433 -.02967 600.727 23.975)"/><ellipse cx="2938.94" cy="1560.39" rx="37.862" ry="12.621" fill="#fff" transform="matrix(-.04863 .06738 -.07674 -.0427 635.59 65.275)"/><ellipse cx="2938.94" cy="1560.39" rx="37.862" ry="12.621" fill="#fff" transform="matrix(.08782 .02044 -.02328 .0771 152.439 20.681)"/></g><g><path d="M1127.13 1812.8c-41.18-35.88-62-55.3-76.25-64.78-18.02-12-26.59-9.8-46.18-3.18-17.725 6.04-30.089 20.54-37.195 40.08-7.779 21.4-8.123 49.44-1.254 79.51 7.671 31.55 10.958 55.05 17.07 73.31 4.49 13.41 10.583 24.25 19.259 33.69 5.64 5.89 11.07 20.03 18.41 36.5 9.21 20.64 20.06 44.82 32.52 65.83 10.58 17.86 22.34 33.42 35.11 43.38 25.32 19.38 54.09 12.47 71.33-7.26 16.44-18.82 22.65-47.92 2.46-69.57-13.53-14.44-21.71-24.33-27.01-31.96-7.87-11.34-9.21-17.44-11.67-25.5 1.28 8.62 1.68 15.07 8.04 27.88 4.26 8.58 11.21 19.83 22.91 36.56 12.04 17.13 5.33 36.67-7.74 48.22-11.35 10.03-28.33 13.3-41.7.27-9.54-9.13-17.24-23.06-24.67-38.23-12.31-25.15-22.35-54.26-31.62-76.31-7.17-17.07-14.56-30.19-20.77-36.76-5.36-5.49-8.84-12.07-11.9-19.96-6.67-17.21-11.42-39.42-20.687-69.13-7.578-23.14-9.653-45.17-5.258-62.7 3.353-13.39 9.925-24.21 21.115-29.65 13.37-6.55 19.19-9.41 33.06-2.66 15.07 7.32 37.87 23.28 82.62 52.42z" fill="url(#_Linear20)" transform="matrix(.18653 -.01731 .0187 .15536 -73.481 6.865)"/></g><g transform="matrix(.18653 -.01731 .0187 .15536 -73.481 6.865)"><path d="M1127.13 1812.8c-89.81-67.88-87.73-71.77-119.06-58.86-31.325 12.91-40.724 57.01-27.148 105.97 13.576 48.96 15.665 78.21 34.458 98.05 18.8 19.84 42.91 115.08 81.55 148.5s92.94-24.02 61.62-62.66c-31.33-38.64-36.3-52.57-33.96-75.52 2.25-21.99 30.29-56.81 32.09-89.94 1.27-23.3-16.02-55.31-29.55-65.54z" fill="none"/><clipPath id="c"><path d="M1127.13 1812.8c-89.81-67.88-87.73-71.77-119.06-58.86-31.325 12.91-40.724 57.01-27.148 105.97 13.576 48.96 15.665 78.21 34.458 98.05 18.8 19.84 42.91 115.08 81.55 148.5s92.94-24.02 61.62-62.66c-31.33-38.64-36.3-52.57-33.96-75.52 2.25-21.99 30.29-56.81 32.09-89.94 1.27-23.3-16.02-55.31-29.55-65.54z"/></clipPath><g clip-path="url(#c)"><path d="M1029.907 1903.864c-26.298 5.338-39.683-66.135-40.182-68.756 7.286-11.537 17.59-19.198 31.14-27.588 27.47-17.016 64.66-8.144 89.947 30.1 25.287 38.232-18.856 65.198-17.533 107.851 1.324 42.654-17.001 46.601 7.312 72.291 24.303 25.69 50.425 33.328 9.31 52.363-41.117 19.035-105.383 56.744-90.543-24.262 14.85-80.993 30.062-65.137 33.164-107.297 3.112-42.16 3.682-40.029-22.615-34.702z" fill="none"/></g></g></g></g><defs><linearGradient id="_Linear4" x1="0" y1="0" x2="1" y2="0" gradientUnits="userSpaceOnUse" gradientTransform="matrix(0 0 0 0 -94.974 812.385)"><stop offset="0" stop-color="#fff" stop-opacity="0"/><stop offset=".45" stop-color="#fff" stop-opacity=".24"/><stop offset="1" stop-color="#fff" stop-opacity=".84"/></linearGradient><linearGradient id="_Linear5" x1="0" y1="0" x2="1" y2="0" gradientUnits="userSpaceOnUse" gradientTransform="rotate(77.038 -832.181 1261.148) scale(1088.281)"><stop offset="0" stop-color="#f7af70"/><stop offset="1" stop-color="#e9884b"/></linearGradient><linearGradient id="_Linear6" x1="0" y1="0" x2="1" y2="0" gradientUnits="userSpaceOnUse" gradientTransform="rotate(-3.349 22413.733 -11931.796) scale(1363.4881)"><stop offset="0" stop-color="#f6ae68"/><stop offset=".48" stop-color="#f5a85d"/><stop offset="1" stop-color="#f3973e"/></linearGradient><linearGradient id="_Linear7" x1="0" y1="0" x2="1" y2="0" gradientUnits="userSpaceOnUse" gradientTransform="scale(-619.227) rotate(-2.268 -55.76 75.397)"><stop offset="0" stop-color="#ad1b5e" stop-opacity=".16"/><stop offset="1" stop-color="#fbb79a" stop-opacity=".16"/></linearGradient><linearGradient id="_Linear8" x1="0" y1="0" x2="1" y2="0" gradientUnits="userSpaceOnUse" gradientTransform="scale(1996.621) rotate(-70.02 1.12 .26)"><stop offset="0"/><stop offset=".45" stop-color="#171717"/><stop offset="1" stop-color="#4d4d4d"/></linearGradient><linearGradient id="_Linear9" x1="0" y1="0" x2="1" y2="0" gradientUnits="userSpaceOnUse" gradientTransform="rotate(-4.832 19425.026 -4240.314) scale(662.0565)"><stop offset="0" stop-color="#ffa415"/><stop offset="1" stop-color="#fef104"/></linearGradient><linearGradient id="_Linear10" x1="0" y1="0" x2="1" y2="0" gradientUnits="userSpaceOnUse" gradientTransform="rotate(168.809 911.871 591.643) scale(306.8383)"><stop offset="0" stop-color="#e6e6e6"/><stop offset="1" stop-color="#9e9e9e"/></linearGradient><linearGradient id="_Linear11" x1="0" y1="0" x2="1" y2="0" gradientUnits="userSpaceOnUse" gradientTransform="rotate(-134.387 1034.218 112.586) scale(357.565)"><stop offset="0" stop-color="#d9d9d9"/><stop offset="1" stop-color="#949494"/></linearGradient><linearGradient id="_Linear12" x1="0" y1="0" x2="1" y2="0" gradientUnits="userSpaceOnUse" gradientTransform="scale(-83.8721) rotate(47.332 5.92 -23.677)"><stop offset="0" stop-color="#737373"/><stop offset="1" stop-color="#424242"/></linearGradient><linearGradient id="_Linear13" x1="0" y1="0" x2="1" y2="0" gradientUnits="userSpaceOnUse" gradientTransform="scale(-1213.48) rotate(-38.035 -1.608 1.267)"><stop offset="0" stop-color="#fff"/><stop offset=".56" stop-color="#ebebeb"/><stop offset="1" stop-color="#9e9e9e"/></linearGradient><linearGradient id="_Linear14" x1="0" y1="0" x2="1" y2="0" gradientUnits="userSpaceOnUse" gradientTransform="scale(-40.6754) rotate(-60.427 -59.25 -12.696)"><stop offset="0"/><stop offset=".5" stop-color="#161616"/><stop offset="1" stop-color="#595959"/></linearGradient><linearGradient id="_Linear15" x1="0" y1="0" x2="1" y2="0" gradientUnits="userSpaceOnUse" gradientTransform="rotate(101.92 -560.484 1479.779) scale(40.67549)"><stop offset="0"/><stop offset=".5" stop-color="#161616"/><stop offset="1" stop-color="#595959"/></linearGradient><linearGradient id="_Linear16" x1="0" y1="0" x2="1" y2="0" gradientUnits="userSpaceOnUse" gradientTransform="rotate(101.92 -562.431 1455.706) scale(40.67549)"><stop offset="0"/><stop offset=".5" stop-color="#161616"/><stop offset="1" stop-color="#595959"/></linearGradient><linearGradient id="_Linear17" x1="0" y1="0" x2="1" y2="0" gradientUnits="userSpaceOnUse" gradientTransform="rotate(101.92 -562.146 1425.073) scale(40.67549)"><stop offset="0"/><stop offset=".5" stop-color="#161616"/><stop offset="1" stop-color="#595959"/></linearGradient><linearGradient id="_Linear18" x1="0" y1="0" x2="1" y2="0" gradientUnits="userSpaceOnUse" gradientTransform="matrix(8.42922 63.6458 40.0899 -13.3821 605.371 2507.58)"><stop offset="0"/><stop offset=".5" stop-color="#161616"/><stop offset="1" stop-color="#595959"/></linearGradient><linearGradient id="_Linear19" x1="0" y1="0" x2="1" y2="0" gradientUnits="userSpaceOnUse" gradientTransform="scale(1335.017) rotate(-31.872 2.43 -.453)"><stop offset="0" stop-color="#898989" stop-opacity=".8"/><stop offset=".3" stop-color="#b7b7b7" stop-opacity=".25"/><stop offset="1" stop-color="#fff" stop-opacity="0"/></linearGradient><linearGradient id="_Linear20" x1="0" y1="0" x2="1" y2="0" gradientUnits="userSpaceOnUse" gradientTransform="matrix(0 0 0 0 334.264 1786.91)"><stop offset="0" stop-color="#c16c36" stop-opacity=".38"/><stop offset="1" stop-color="#e9894b" stop-opacity=".51"/></linearGradient><image id="_Image3" width="245" height="146"/></defs></svg>