<svg width="25" height="5" viewBox="0 0 15 3" fill="none" xmlns="http://www.w3.org/2000/svg">
<path d="M11.2442 1.5C11.2442 1.10218 11.4275 0.720646 11.7537 0.439342C12.0799 0.158037 12.5223 1.43051e-06 12.9837 1.43051e-06C13.445 1.43051e-06 13.8874 0.158037 14.2136 0.439342C14.5398 0.720646 14.7231 1.10218 14.7231 1.5C14.7231 1.89783 14.5398 2.27936 14.2136 2.56066C13.8874 2.84197 13.445 3 12.9837 3C12.5223 3 12.0799 2.84197 11.7537 2.56066C11.4275 2.27936 11.2442 1.89783 11.2442 1.5ZM6.02592 1.5C6.02592 1.10218 6.20919 0.720646 6.53539 0.439342C6.8616 0.158037 7.30403 1.43051e-06 7.76536 1.43051e-06C8.22669 1.43051e-06 8.66912 0.158037 8.99533 0.439342C9.32153 0.720646 9.5048 1.10218 9.5048 1.5C9.5048 1.89783 9.32153 2.27936 8.99533 2.56066C8.66912 2.84197 8.22669 3 7.76536 3C7.30403 3 6.8616 2.84197 6.53539 2.56066C6.20919 2.27936 6.02592 1.89783 6.02592 1.5ZM0.807618 1.5C0.807618 1.10218 0.99088 0.720646 1.31709 0.439342C1.64329 0.158037 2.08573 1.43051e-06 2.54705 1.43051e-06C3.00838 1.43051e-06 3.45081 0.158037 3.77702 0.439342C4.10323 0.720646 4.28649 1.10218 4.28649 1.5C4.28649 1.89783 4.10323 2.27936 3.77702 2.56066C3.45081 2.84197 3.00838 3 2.54705 3C2.08573 3 1.64329 2.84197 1.31709 2.56066C0.99088 2.27936 0.807618 1.89783 0.807618 1.5Z" fill="#3ABC98"/>
</svg>
