<svg width="21" height="17" viewBox="0 0 21 17" fill="none" xmlns="http://www.w3.org/2000/svg">
<path fill-rule="evenodd" clip-rule="evenodd" d="M13.0839 1.94276C12.6351 1.94258 12.1919 2.04092 11.7862 2.23068C11.3805 2.42044 11.0225 2.69688 10.738 3.04007C10.4535 3.38325 10.2496 3.78461 10.1411 4.21516C10.0325 4.64572 10.022 5.09474 10.1103 5.5298C10.1406 5.68055 10.1344 5.83627 10.0921 5.98418C10.0498 6.13208 9.97254 6.26794 9.86676 6.38058C9.76098 6.49323 9.62968 6.57944 9.48364 6.63214C9.3376 6.68484 9.18099 6.70251 9.0267 6.68372C6.91433 6.42715 4.92305 5.56861 3.29553 4.21271C3.32599 4.79744 3.5313 5.41907 3.97632 6.06985L4.64335 7.04504L3.548 7.50641L3.33679 7.59577C3.49397 7.77352 3.68259 7.95516 3.8938 8.13485C4.17615 8.3738 4.47484 8.59319 4.78776 8.79145L4.79856 8.79825L6.32026 9.71031L4.72881 10.4971C4.65022 10.5359 4.57164 10.5709 4.49305 10.602C4.83524 10.8831 5.21223 11.1201 5.61491 11.3071L6.98041 11.9453L5.83693 12.9205C5.21312 13.4528 4.58539 13.85 3.771 14.0598C5.02003 14.7176 6.41402 15.0603 7.82918 15.0574C12.5505 15.0574 16.3523 11.3324 16.3523 6.76822V6.26314L16.7698 5.97272C17.4221 5.52009 17.8828 4.90817 18.2129 4.20785H16.0909L15.8237 3.65421C15.5777 3.14201 15.1897 2.70932 14.7049 2.40638C14.2201 2.10344 13.6584 1.94268 13.0849 1.94276H13.0839ZM2.00273 9.03331C1.91003 9.13828 1.84126 9.26174 1.80108 9.39531C1.76091 9.52889 1.75028 9.66945 1.76991 9.80744C1.88092 10.5855 2.35147 11.2557 2.87213 11.7675C3.01359 11.9064 3.16488 12.0395 3.32402 12.1667L3.25034 12.1862C2.77782 12.3027 2.14026 12.327 1.07832 12.225C0.877774 12.2056 0.676031 12.2476 0.50044 12.3453C0.324849 12.443 0.183905 12.5918 0.0967174 12.7714C0.00953013 12.951 -0.0196824 13.1528 0.0130406 13.3494C0.0457635 13.546 0.138839 13.7279 0.279647 13.8704C1.26278 14.864 2.43723 15.6528 3.73369 16.1903C5.03016 16.7278 6.42238 17.0031 7.8282 17C13.4405 17 18.0439 12.6913 18.3042 7.25387C19.5715 6.20195 20.2051 4.77704 20.547 3.48229C20.585 3.33858 20.5892 3.18817 20.5592 3.04263C20.5292 2.89708 20.4658 2.76028 20.374 2.64273C20.2821 2.52518 20.1642 2.43003 20.0294 2.36459C19.8945 2.29915 19.7463 2.26516 19.5961 2.26524H17.2845C16.7191 1.3972 15.8928 0.726144 14.9218 0.346356C13.9508 -0.033432 12.8838 -0.102859 11.8708 0.147832C10.8578 0.398522 9.94973 0.956729 9.27414 1.74401C8.59855 2.5313 8.18942 3.50809 8.10425 4.53713C6.2934 4.07104 4.67315 3.06152 3.46647 1.64749C3.3596 1.52256 3.22255 1.42635 3.06803 1.36778C2.91352 1.30921 2.74654 1.29019 2.5826 1.31247C2.41866 1.33476 2.26307 1.39763 2.13027 1.49525C1.99746 1.59287 1.89176 1.72208 1.82295 1.87089C1.22764 3.15496 1.11368 4.63523 1.77777 6.14076L1.54789 6.23789C1.32791 6.33056 1.14967 6.49939 1.04659 6.71272C0.943504 6.92604 0.92265 7.16922 0.987938 7.39666C1.17066 8.02995 1.58227 8.58942 2.00273 9.03331Z" fill="white"/>
</svg>
